<?xml version="1.0" encoding="UTF-8"?>
<svg xmlns="http://www.w3.org/2000/svg" viewBox="0 0 480 360"
  role="img" aria-labelledby="title desc">
  <title id="title">Round-Sleeve Blouson</title>
  <desc id="desc">Outline study of a rounded blouson with curved sleeves. Project-authored outline study.</desc>
  <rect width="480" height="360" fill="#0a0a09"/>
  <path d="M24 52H456M24 316H456" fill="none" stroke="#3b3b38" stroke-width="1"/>
  <g fill="none" stroke="#f1efe9" stroke-width="2.5"
    stroke-linecap="round" stroke-linejoin="round">
    <path d="M198 92Q162 97 142 125L112 192 153 210 174 169 167 286
      Q240 314 313 286L306 169 327 210 368 192 338 125Q318 97 282 92Z"/>
    <path d="M212 94Q240 125 268 94M240 124V287M174 270Q240 288 306 270"
      stroke="#85847f"/>
    <path d="M148 151Q170 170 174 201M332 151Q310 170 306 201" stroke="#85847f"/>
  </g>
  <g fill="none" stroke="#969590" stroke-width="1" stroke-linecap="square">
    <path d="M24 28H68M24 34H44"/>
    <path d="M412 330H456M436 336H456"/>
  </g>
</svg>
