<?xml version="1.0" encoding="UTF-8"?>
<svg xmlns="http://www.w3.org/2000/svg" viewBox="0 0 480 360"
  role="img" aria-labelledby="title desc">
  <title id="title">Layered Trail Shoe</title>
  <desc id="desc">Outline study of a layered trail shoe with a lugged outsole. Project-authored outline study.</desc>
  <rect width="480" height="360" fill="#0a0a09"/>
  <path d="M24 52H456M24 316H456" fill="none" stroke="#3b3b38" stroke-width="1"/>
  <g fill="none" stroke="#f1efe9" stroke-width="2.5"
    stroke-linecap="round" stroke-linejoin="round">
    <path d="M86 233Q123 211 162 161L255 151 301 190 350 205 399 229
      388 259H101Q78 251 86 233Z"/>
    <path d="M100 224L151 206 191 174 249 169 283 201 337 217 377 239"
      stroke="#85847f"/>
    <path d="M91 247L112 261 133 247 154 261 175 247 196 261 217 247 238 261
      259 247 280 261 301 247 322 261 343 247 364 261 388 247" stroke="#85847f"/>
    <path d="M195 173L264 204M211 165L279 195" stroke="#85847f"/>
  </g>
  <g fill="none" stroke="#969590" stroke-width="1" stroke-linecap="square">
    <path d="M24 28H68M24 34H44"/>
    <path d="M412 330H456M436 336H456"/>
  </g>
</svg>
