<?xml version="1.0" encoding="UTF-8"?>
<svg xmlns="http://www.w3.org/2000/svg" viewBox="0 0 480 360"
  role="img" aria-labelledby="title desc">
  <title id="title">Cropped Distressed Flight Bomber</title>
  <desc id="desc">Outline study of a cropped full-bodied flight bomber. Project-authored outline study.</desc>
  <rect width="480" height="360" fill="#0a0a09"/>
  <path d="M24 52H456M24 316H456" fill="none" stroke="#3b3b38" stroke-width="1"/>
  <g fill="none" stroke="#f1efe9" stroke-width="2.5"
    stroke-linecap="round" stroke-linejoin="round">
    <path d="M197 91Q164 97 141 124L112 178 151 199 175 159
      169 257Q240 279 311 257L305 159 329 199 368 178 339 124Q316 97 283 91Z"/>
    <path d="M211 93L240 124 269 93M240 124V265M172 238Q240 254 308 238"
      stroke="#85847f"/>
    <path d="M318 144H339V184H316" stroke="#85847f"/>
  </g>
  <g fill="none" stroke="#969590" stroke-width="1" stroke-linecap="square">
    <path d="M24 28H68M24 34H44"/>
    <path d="M412 330H456M436 336H456"/>
  </g>
</svg>
