<?xml version="1.0" encoding="UTF-8"?>
<svg xmlns="http://www.w3.org/2000/svg" viewBox="0 0 480 360"
  role="img" aria-labelledby="title desc">
  <title id="title">Four-Pocket Work Jacket</title>
  <desc id="desc">Outline study of a straight four-pocket work jacket. Project-authored outline study.</desc>
  <rect width="480" height="360" fill="#0a0a09"/>
  <path d="M24 52H456M24 316H456" fill="none" stroke="#3b3b38" stroke-width="1"/>
  <g fill="none" stroke="#f1efe9" stroke-width="2.5"
    stroke-linecap="round" stroke-linejoin="round">
    <path d="M196 86L166 100 118 137 145 190 170 175V306H310V175L335 190
      362 137 314 100 284 86Z"/>
    <path d="M220 88L204 123 240 144 276 123 260 88M240 144V304" stroke="#85847f"/>
    <path d="M188 164H226V205H188ZM254 164H292V205H254Z" stroke="#85847f"/>
    <path d="M188 230H226V282H188ZM254 230H292V282H254Z" stroke="#85847f"/>
  </g>
  <g fill="none" stroke="#969590" stroke-width="1" stroke-linecap="square">
    <path d="M24 28H68M24 34H44"/>
    <path d="M412 330H456M436 336H456"/>
  </g>
</svg>
