<?xml version="1.0" encoding="UTF-8"?>
<svg xmlns="http://www.w3.org/2000/svg" viewBox="0 0 480 360"
  role="img" aria-labelledby="title desc">
  <title id="title">Soft-Collar Overshirt</title>
  <desc id="desc">Outline study of a relaxed single-pocket overshirt. Project-authored outline study.</desc>
  <rect width="480" height="360" fill="#0a0a09"/>
  <path d="M24 52H456M24 316H456" fill="none" stroke="#3b3b38" stroke-width="1"/>
  <g fill="none" stroke="#f1efe9" stroke-width="2.5"
    stroke-linecap="round" stroke-linejoin="round">
    <path d="M202 82L172 98 124 140 151 187 174 174V304
      Q240 316 306 304V174L329 187 356 140 308 98 278 82Z"/>
    <path d="M202 84L240 122 278 84M240 122V309M184 151H231V207H184"
      stroke="#85847f"/>
    <path d="M178 281Q240 295 302 281" stroke="#85847f"/>
  </g>
  <g fill="none" stroke="#969590" stroke-width="1" stroke-linecap="square">
    <path d="M24 28H68M24 34H44"/>
    <path d="M412 330H456M436 336H456"/>
  </g>
</svg>
